<svg width="580" height="240" viewBox="0 0 580 240" xmlns="http://www.w3.org/2000/svg">
  <rect width="580" height="240" fill="#08081c"/>
  <defs>
    <radialGradient id="bg_ai-store" cx="50%" cy="50%" r="60%">
      <stop offset="0%" stop-color="#B2FF00" stop-opacity="0.05"/>
      <stop offset="100%" stop-color="#B2FF00" stop-opacity="0"/>
    </radialGradient>
  </defs>
  <rect width="580" height="240" fill="url(#bg_ai-store)"/>
  
          <polyline points="40,200 100,120 160,150 220,80 280,110 340,50 400,90 460,40 520,70 560,30" 
            fill="none" stroke="#B2FF00" stroke-width="2.5" opacity="0.9"/>
          <polyline points="40,200 100,120 160,150 220,80 280,110 340,50 400,90 460,40 520,70 560,30" 
            fill="none" stroke="#B2FF00" stroke-width="10" opacity="0.1"/>
          <circle cx="340" cy="50" r="6" fill="#B2FF00"/>
          <circle cx="460" cy="40" r="6" fill="#B2FF00"/>
          <text x="20" y="20" font-family="monospace" font-size="9" fill="#B2FF00" opacity="0.5">AI MODULES · neural · runtime</text>
        
  <rect x="0" y="202" width="580" height="38" fill="rgba(0,0,0,0.5)"/>
  <text x="16" y="222" font-family="monospace" font-size="11" fill="#B2FF00" font-weight="700" letter-spacing="1">AI STORE</text>
</svg>