<svg width="580" height="240" viewBox="0 0 580 240" xmlns="http://www.w3.org/2000/svg">
  <rect width="580" height="240" fill="#08081c"/>
  <rect width="580" height="240" fill="url(#g_cam)"/>
  <defs>
    <radialGradient id="g_cam" cx="80%" cy="20%" r="60%">
      <stop offset="0%" stop-color="#ff90b3" stop-opacity="0.08"/>
      <stop offset="100%" stop-color="#ff90b3" stop-opacity="0"/>
    </radialGradient>
  </defs>
  <g transform="translate(0, 30)">
  
          <rect x="180" y="50" width="220" height="140" rx="8" fill="none" stroke="#ff90b3" stroke-width="2"/>
          <rect x="200" y="65" width="180" height="110" rx="4" fill="rgba(255,144,179,0.06)"/>
          <rect x="215" y="78" width="60" height="55" fill="none" stroke="#ff90b3" stroke-width="1.5" opacity="0.7"/>
          <rect x="305" y="88" width="65" height="45" fill="none" stroke="#ff90b3" stroke-width="1.5" opacity="0.5"/>
          <rect x="215" y="78" width="60" height="55" fill="none" stroke="#ff90b3" stroke-width="4" opacity="0.15"/>
          <circle cx="247" cy="108" r="3" fill="#ff90b3"/>
          <circle cx="337" cy="113" r="3" fill="#ff90b3" opacity="0.6"/>
          <line x1="215" y1="78" x2="205" y2="65" stroke="#ff90b3" stroke-width="1.2" opacity="0.6"/>
          <line x1="275" y1="78" x2="285" y2="65" stroke="#ff90b3" stroke-width="1.2" opacity="0.6"/>
          <line x1="215" y1="133" x2="205" y2="145" stroke="#ff90b3" stroke-width="1.2" opacity="0.6"/>
          <line x1="275" y1="133" x2="285" y2="145" stroke="#ff90b3" stroke-width="1.2" opacity="0.6"/>
          <text x="20" y="20" font-family="monospace" font-size="8" fill="#ff90b3" opacity="0.6">VISUAL AI · real-time detection</text>
          <text x="225" y="152" font-family="monospace" font-size="7" fill="#ff90b3" opacity="0.7">person: 98.4%</text>
        
  </g>
  <rect x="0" y="202" width="580" height="38" fill="rgba(0,0,0,0.5)"/>
  <text x="16" y="220" font-family="monospace" font-size="11" fill="#ff90b3" font-weight="700" letter-spacing="1">CAMERA AI</text>
  <text x="16" y="232" font-family="monospace" font-size="8" fill="#ff90b3" opacity="0.5">MicroService · Visual Analysis</text>
</svg>