<svg width="600" height="280" viewBox="0 0 600 280" xmlns="http://www.w3.org/2000/svg">
  <rect width="600" height="280" fill="#0a0a1e"/>
  
  <defs>
    <radialGradient id="gdt" cx="30%" cy="50%" r="40%">
      <stop offset="0%" stop-color="#00e5ff" stop-opacity="0.15"/>
      <stop offset="100%" stop-color="#00e5ff" stop-opacity="0"/>
    </radialGradient>
  </defs>
  <rect width="600" height="280" fill="url(#gdt)"/>
  <!-- REAL object (left) — solid industrial component -->
  <rect x="60" y="90" width="180" height="110" rx="6" fill="rgba(0,229,255,0.15)" stroke="#00e5ff" stroke-width="2"/>
  <rect x="80" y="110" width="60" height="70" rx="3" fill="rgba(0,229,255,0.2)" stroke="#00e5ff" stroke-width="1.2"/>
  <rect x="160" y="110" width="60" height="70" rx="3" fill="rgba(0,229,255,0.2)" stroke="#00e5ff" stroke-width="1.2"/>
  <circle cx="110" cy="145" r="15" fill="none" stroke="#00e5ff" stroke-width="1.5"/>
  <circle cx="190" cy="145" r="15" fill="none" stroke="#00e5ff" stroke-width="1.5"/>
  <text x="148" y="78" font-family="monospace" font-size="9" fill="#00e5ff" opacity="0.7" text-anchor="middle">PHYSICAL ASSET</text>
  <!-- Sync arrow -->
  <line x1="248" y1="145" x2="342" y2="145" stroke="#00e5ff" stroke-width="2" stroke-dasharray="6,4" opacity="0.6"/>
  <polygon points="342,139 355,145 342,151" fill="#00e5ff" opacity="0.8"/>
  <polygon points="248,139 235,145 248,151" fill="#00e5ff" opacity="0.8"/>
  <text x="295" y="138" font-family="monospace" font-size="8" fill="#00e5ff" opacity="0.6" text-anchor="middle">sync</text>
  <text x="295" y="164" font-family="monospace" font-size="7" fill="#00e5ff" opacity="0.4" text-anchor="middle">&lt;100ms</text>
  <!-- VIRTUAL twin (right) — wireframe version -->
  <rect x="360" y="90" width="180" height="110" rx="6" fill="none" stroke="#00e5ff" stroke-width="1.5" stroke-dasharray="5,3"/>
  <rect x="380" y="110" width="60" height="70" rx="3" fill="none" stroke="#00e5ff" stroke-width="1" stroke-dasharray="4,3"/>
  <rect x="460" y="110" width="60" height="70" rx="3" fill="none" stroke="#00e5ff" stroke-width="1" stroke-dasharray="4,3"/>
  <circle cx="410" cy="145" r="15" fill="none" stroke="#00e5ff" stroke-width="1" stroke-dasharray="4,3" opacity="0.7"/>
  <circle cx="490" cy="145" r="15" fill="none" stroke="#00e5ff" stroke-width="1" stroke-dasharray="4,3" opacity="0.7"/>
  <text x="448" y="78" font-family="monospace" font-size="9" fill="#00e5ff" opacity="0.7" text-anchor="middle">VIRTUAL REPLICA</text>
  <!-- State labels -->
  <rect x="60" y="218" width="180" height="18" rx="2" fill="rgba(0,229,255,0.1)"/>
  <text x="150" y="230" font-family="monospace" font-size="8" fill="#00e5ff" opacity="0.7" text-anchor="middle">state: running · temp: 74°C</text>
  <rect x="360" y="218" width="180" height="18" rx="2" fill="rgba(0,229,255,0.06)" stroke="#00e5ff" stroke-width="0.5" stroke-dasharray="3,3"/>
  <text x="450" y="230" font-family="monospace" font-size="8" fill="#00e5ff" opacity="0.5" text-anchor="middle">mirroring · last sync: 0.08s</text>
  <rect x="0" y="258" width="600" height="22" fill="rgba(0,0,0,0.6)"/>
  <text x="14" y="273" font-family="monospace" font-size="10" fill="#00e5ff" font-weight="700">DIGITAL TWIN · real-time virtual replica · sub-100ms sync</text>

</svg>