<svg width="580" height="240" viewBox="0 0 580 240" xmlns="http://www.w3.org/2000/svg">
  <rect width="580" height="240" fill="#08081c"/>
  <rect width="580" height="240" fill="url(#g_neuro)"/>
  <defs>
    <radialGradient id="g_neuro" cx="80%" cy="20%" r="60%">
      <stop offset="0%" stop-color="#b892ff" stop-opacity="0.08"/>
      <stop offset="100%" stop-color="#b892ff" stop-opacity="0"/>
    </radialGradient>
  </defs>
  <g transform="translate(0, 30)">
  
          <circle cx="100" cy="60" r="8" fill="none" stroke="#b892ff" stroke-width="1.5"/>
          <circle cx="100" cy="120" r="8" fill="none" stroke="#b892ff" stroke-width="1.5"/>
          <circle cx="200" cy="40" r="8" fill="none" stroke="#b892ff" stroke-width="1.5"/>
          <circle cx="200" cy="90" r="8" fill="rgba(184,146,255,0.3)" stroke="#b892ff" stroke-width="2"/>
          <circle cx="200" cy="140" r="8" fill="none" stroke="#b892ff" stroke-width="1.5"/>
          <circle cx="310" cy="65" r="8" fill="none" stroke="#b892ff" stroke-width="1.5"/>
          <circle cx="310" cy="115" r="8" fill="rgba(184,146,255,0.3)" stroke="#b892ff" stroke-width="2"/>
          <circle cx="420" cy="90" r="12" fill="rgba(184,146,255,0.2)" stroke="#b892ff" stroke-width="2.5"/>
          <line x1="108" y1="60" x2="192" y2="40" stroke="#b892ff" stroke-width="1" opacity="0.6"/>
          <line x1="108" y1="60" x2="192" y2="90" stroke="#b892ff" stroke-width="1" opacity="0.6"/>
          <line x1="108" y1="60" x2="192" y2="140" stroke="#b892ff" stroke-width="1" opacity="0.4"/>
          <line x1="108" y1="120" x2="192" y2="40" stroke="#b892ff" stroke-width="1" opacity="0.4"/>
          <line x1="108" y1="120" x2="192" y2="90" stroke="#b892ff" stroke-width="1" opacity="0.6"/>
          <line x1="108" y1="120" x2="192" y2="140" stroke="#b892ff" stroke-width="1" opacity="0.6"/>
          <line x1="208" y1="40" x2="302" y2="65" stroke="#b892ff" stroke-width="1" opacity="0.6"/>
          <line x1="208" y1="90" x2="302" y2="65" stroke="#b892ff" stroke-width="1.5" opacity="0.8"/>
          <line x1="208" y1="90" x2="302" y2="115" stroke="#b892ff" stroke-width="1.5" opacity="0.8"/>
          <line x1="208" y1="140" x2="302" y2="115" stroke="#b892ff" stroke-width="1" opacity="0.6"/>
          <line x1="318" y1="65" x2="408" y2="90" stroke="#b892ff" stroke-width="2" opacity="0.9"/>
          <line x1="318" y1="115" x2="408" y2="90" stroke="#b892ff" stroke-width="2" opacity="0.9"/>
          <text x="20" y="20" font-family="monospace" font-size="8" fill="#b892ff" opacity="0.6">&lt;5ms inference · edge hardware</text>
        
  </g>
  <rect x="0" y="202" width="580" height="38" fill="rgba(0,0,0,0.5)"/>
  <text x="16" y="220" font-family="monospace" font-size="11" fill="#b892ff" font-weight="700" letter-spacing="1">NEURO BOOST ENGINE</text>
  <text x="16" y="232" font-family="monospace" font-size="8" fill="#b892ff" opacity="0.5">Algorithm · Neural Inference</text>
</svg>