<svg width="600" height="280" viewBox="0 0 600 280" xmlns="http://www.w3.org/2000/svg">
  <rect width="600" height="280" fill="#0a0a1e"/>
  
  <defs>
    <radialGradient id="gn" cx="50%" cy="50%" r="45%">
      <stop offset="0%" stop-color="#b892ff" stop-opacity="0.2"/>
      <stop offset="100%" stop-color="#b892ff" stop-opacity="0"/>
    </radialGradient>
  </defs>
  <rect width="600" height="280" fill="url(#gn)"/>
  <!-- Chip body -->
  <rect x="205" y="65" width="190" height="150" rx="8" fill="rgba(184,146,255,0.12)" stroke="#b892ff" stroke-width="2.5"/>
  <!-- Chip inner grid -->
  <rect x="225" y="85" width="150" height="110" rx="4" fill="rgba(184,146,255,0.08)" stroke="#b892ff" stroke-width="1"/>
  <!-- Circuit traces left -->
  <line x1="205" y1="95" x2="60" y2="95" stroke="#b892ff" stroke-width="2" opacity="0.7"/>
  <line x1="205" y1="115" x2="60" y2="115" stroke="#b892ff" stroke-width="2" opacity="0.7"/>
  <line x1="205" y1="135" x2="60" y2="135" stroke="#b892ff" stroke-width="2" opacity="0.7"/>
  <line x1="205" y1="155" x2="60" y2="155" stroke="#b892ff" stroke-width="2" opacity="0.7"/>
  <line x1="205" y1="175" x2="60" y2="175" stroke="#b892ff" stroke-width="2" opacity="0.7"/>
  <line x1="205" y1="195" x2="60" y2="195" stroke="#b892ff" stroke-width="2" opacity="0.7"/>
  <!-- Pins left -->
  <rect x="38" y="90" width="22" height="10" rx="2" fill="#b892ff" opacity="0.7"/>
  <rect x="38" y="110" width="22" height="10" rx="2" fill="#b892ff" opacity="0.7"/>
  <rect x="38" y="130" width="22" height="10" rx="2" fill="#b892ff" opacity="0.7"/>
  <rect x="38" y="150" width="22" height="10" rx="2" fill="#b892ff" opacity="0.5"/>
  <rect x="38" y="170" width="22" height="10" rx="2" fill="#b892ff" opacity="0.7"/>
  <rect x="38" y="190" width="22" height="10" rx="2" fill="#b892ff" opacity="0.7"/>
  <!-- Traces right -->
  <line x1="395" y1="95" x2="540" y2="95" stroke="#b892ff" stroke-width="2" opacity="0.7"/>
  <line x1="395" y1="115" x2="540" y2="115" stroke="#b892ff" stroke-width="2" opacity="0.7"/>
  <line x1="395" y1="135" x2="540" y2="135" stroke="#b892ff" stroke-width="2" opacity="0.7"/>
  <line x1="395" y1="155" x2="540" y2="155" stroke="#b892ff" stroke-width="2" opacity="0.7"/>
  <line x1="395" y1="175" x2="540" y2="175" stroke="#b892ff" stroke-width="2" opacity="0.7"/>
  <line x1="395" y1="195" x2="540" y2="195" stroke="#b892ff" stroke-width="2" opacity="0.7"/>
  <!-- Pins right -->
  <rect x="540" y="90" width="22" height="10" rx="2" fill="#b892ff" opacity="0.7"/>
  <rect x="540" y="110" width="22" height="10" rx="2" fill="#b892ff" opacity="0.7"/>
  <rect x="540" y="130" width="22" height="10" rx="2" fill="#b892ff" opacity="0.7"/>
  <rect x="540" y="150" width="22" height="10" rx="2" fill="#b892ff" opacity="0.5"/>
  <rect x="540" y="170" width="22" height="10" rx="2" fill="#b892ff" opacity="0.7"/>
  <rect x="540" y="190" width="22" height="10" rx="2" fill="#b892ff" opacity="0.7"/>
  <!-- Chip label -->
  <text x="300" y="135" font-family="monospace" font-size="11" fill="#b892ff" text-anchor="middle" font-weight="700">HALO</text>
  <text x="300" y="152" font-family="monospace" font-size="9" fill="#b892ff" text-anchor="middle" opacity="0.7">NEURO·X2</text>
  <text x="300" y="168" font-family="monospace" font-size="8" fill="#b892ff" text-anchor="middle" opacity="0.5">4.7 TOPS</text>
  <!-- Glow pulse rings -->
  <circle cx="300" cy="140" r="70" fill="none" stroke="#b892ff" stroke-width="0.8" opacity="0.2"/>
  <circle cx="300" cy="140" r="95" fill="none" stroke="#b892ff" stroke-width="0.5" opacity="0.1"/>
  <rect x="0" y="258" width="600" height="22" fill="rgba(0,0,0,0.6)"/>
  <text x="14" y="273" font-family="monospace" font-size="10" fill="#b892ff" font-weight="700">NEURO BOOST · &lt;5ms INFERENCE · EDGE HARDWARE · 4.7 TOPS</text>

</svg>