<svg width="580" height="240" viewBox="0 0 580 240" xmlns="http://www.w3.org/2000/svg">
  <rect width="580" height="240" fill="#08081c"/>
  <rect width="580" height="240" fill="url(#g_sdv)"/>
  <defs>
    <radialGradient id="g_sdv" cx="80%" cy="20%" r="60%">
      <stop offset="0%" stop-color="#B2FF00" stop-opacity="0.08"/>
      <stop offset="100%" stop-color="#B2FF00" stop-opacity="0"/>
    </radialGradient>
  </defs>
  <g transform="translate(0, 30)">
  
          <ellipse cx="290" cy="130" rx="160" ry="55" fill="rgba(178,255,0,0.05)" stroke="#B2FF00" stroke-width="1.5" opacity="0.6"/>
          <rect x="180" y="95" width="220" height="70" rx="12" fill="rgba(178,255,0,0.08)" stroke="#B2FF00" stroke-width="1.5"/>
          <rect x="210" y="108" width="55" height="40" rx="5" fill="rgba(178,255,0,0.15)" stroke="#B2FF00" stroke-width="1"/>
          <rect x="315" y="108" width="55" height="40" rx="5" fill="rgba(178,255,0,0.15)" stroke="#B2FF00" stroke-width="1"/>
          <circle cx="220" cy="155" r="18" fill="none" stroke="#B2FF00" stroke-width="2"/>
          <circle cx="220" cy="155" r="8" fill="rgba(178,255,0,0.3)"/>
          <circle cx="360" cy="155" r="18" fill="none" stroke="#B2FF00" stroke-width="2"/>
          <circle cx="360" cy="155" r="8" fill="rgba(178,255,0,0.3)"/>
          <line x1="100" y1="140" x2="170" y2="120" stroke="#B2FF00" stroke-width="1" opacity="0.4" stroke-dasharray="6 4"/>
          <line x1="480" y1="140" x2="410" y2="120" stroke="#B2FF00" stroke-width="1" opacity="0.4" stroke-dasharray="6 4"/>
          <circle cx="100" cy="140" r="4" fill="#B2FF00" opacity="0.5"/>
          <circle cx="480" cy="140" r="4" fill="#B2FF00" opacity="0.5"/>
          <text x="20" y="20" font-family="monospace" font-size="8" fill="#B2FF00" opacity="0.6">OTA SAFE · mission-critical · v3.1</text>
        
  </g>
  <rect x="0" y="202" width="580" height="38" fill="rgba(0,0,0,0.5)"/>
  <text x="16" y="220" font-family="monospace" font-size="11" fill="#B2FF00" font-weight="700" letter-spacing="1">SDV CRUISE CONTROL</text>
  <text x="16" y="232" font-family="monospace" font-size="8" fill="#B2FF00" opacity="0.5">Algorithm · Autonomous AI</text>
</svg>