<svg width="580" height="240" viewBox="0 0 580 240" xmlns="http://www.w3.org/2000/svg">
  <rect width="580" height="240" fill="#08081c"/>
  <rect width="580" height="240" fill="url(#g_smarthome)"/>
  <defs>
    <radialGradient id="g_smarthome" cx="80%" cy="20%" r="60%">
      <stop offset="0%" stop-color="#B2FF00" stop-opacity="0.08"/>
      <stop offset="100%" stop-color="#B2FF00" stop-opacity="0"/>
    </radialGradient>
  </defs>
  <g transform="translate(0, 30)">
  
          <circle cx="290" cy="75" r="18" fill="none" stroke="#B2FF00" stroke-width="2"/>
          <circle cx="290" cy="75" r="8" fill="#B2FF00" opacity="0.8"/>
          <line x1="290" y1="75" x2="160" y2="40" stroke="#B2FF00" stroke-width="1.2" opacity="0.6"/>
          <line x1="290" y1="75" x2="420" y2="40" stroke="#B2FF00" stroke-width="1.2" opacity="0.6"/>
          <line x1="290" y1="75" x2="140" y2="110" stroke="#B2FF00" stroke-width="1.2" opacity="0.6"/>
          <line x1="290" y1="75" x2="440" y2="110" stroke="#B2FF00" stroke-width="1.2" opacity="0.6"/>
          <line x1="290" y1="75" x2="290" y2="135" stroke="#B2FF00" stroke-width="1.2" opacity="0.6"/>
          <rect x="148" y="28" width="24" height="24" rx="3" fill="rgba(178,255,0,0.15)" stroke="#B2FF00" stroke-width="1.2"/>
          <rect x="408" y="28" width="24" height="24" rx="3" fill="rgba(178,255,0,0.15)" stroke="#B2FF00" stroke-width="1.2"/>
          <rect x="128" y="98" width="24" height="24" rx="3" fill="rgba(178,255,0,0.15)" stroke="#B2FF00" stroke-width="1.2"/>
          <rect x="428" y="98" width="24" height="24" rx="3" fill="rgba(178,255,0,0.15)" stroke="#B2FF00" stroke-width="1.2"/>
          <rect x="278" y="123" width="24" height="24" rx="3" fill="rgba(178,255,0,0.15)" stroke="#B2FF00" stroke-width="1.2"/>
          <text x="20" y="20" font-family="monospace" font-size="8" fill="#B2FF00" opacity="0.5">5 devices · edge-native</text>
          <circle cx="290" cy="75" r="35" fill="none" stroke="#B2FF00" stroke-width="0.5" opacity="0.2" stroke-dasharray="4 4"/>
          <circle cx="290" cy="75" r="55" fill="none" stroke="#B2FF00" stroke-width="0.5" opacity="0.12" stroke-dasharray="3 6"/>
        
  </g>
  <rect x="0" y="202" width="580" height="38" fill="rgba(0,0,0,0.5)"/>
  <text x="16" y="220" font-family="monospace" font-size="11" fill="#B2FF00" font-weight="700" letter-spacing="1">SMART HOME MIDDLEWARE</text>
  <text x="16" y="232" font-family="monospace" font-size="8" fill="#B2FF00" opacity="0.5">MicroService · Device Mesh</text>
</svg>