<svg width="600" height="280" viewBox="0 0 600 280" xmlns="http://www.w3.org/2000/svg">
  <rect width="600" height="280" fill="#0a0a1e"/>
  
  <defs>
    <radialGradient id="gd" cx="70%" cy="30%" r="50%">
      <stop offset="0%" stop-color="#B2FF00" stop-opacity="0.1"/>
      <stop offset="100%" stop-color="#B2FF00" stop-opacity="0"/>
    </radialGradient>
  </defs>
  <rect width="600" height="280" fill="url(#gd)"/>
  <!-- Dashboard frame -->
  <rect x="30" y="30" width="540" height="200" rx="6" fill="rgba(255,255,255,0.04)" stroke="rgba(178,255,0,0.3)" stroke-width="1.2"/>
  <!-- Top bar -->
  <rect x="30" y="30" width="540" height="28" rx="6" fill="rgba(178,255,0,0.08)"/>
  <circle cx="50" cy="44" r="5" fill="#B2FF00" opacity="0.5"/>
  <circle cx="64" cy="44" r="5" fill="rgba(178,255,0,0.3)"/>
  <text x="85" y="49" font-family="monospace" font-size="9" fill="#B2FF00" opacity="0.7">HALO DIAGNOSTICS · live monitoring</text>
  <text x="510" y="49" font-family="monospace" font-size="9" fill="#ff4455" opacity="0.9">● LIVE</text>
  <!-- Metric cards -->
  <rect x="44" y="72" width="110" height="60" rx="3" fill="rgba(178,255,0,0.06)" stroke="rgba(178,255,0,0.2)" stroke-width="1"/>
  <text x="54" y="91" font-family="monospace" font-size="8" fill="#B2FF00" opacity="0.6">CPU USAGE</text>
  <text x="54" y="113" font-family="monospace" font-size="20" fill="#B2FF00" font-weight="700">78%</text>
  <rect x="168" y="72" width="110" height="60" rx="3" fill="rgba(178,255,0,0.06)" stroke="rgba(178,255,0,0.2)" stroke-width="1"/>
  <text x="178" y="91" font-family="monospace" font-size="8" fill="#B2FF00" opacity="0.6">MEMORY</text>
  <text x="178" y="113" font-family="monospace" font-size="20" fill="#B2FF00" font-weight="700">4.2GB</text>
  <rect x="292" y="72" width="110" height="60" rx="3" fill="rgba(255,68,85,0.1)" stroke="rgba(255,68,85,0.4)" stroke-width="1.5"/>
  <text x="302" y="91" font-family="monospace" font-size="8" fill="#ff4455" opacity="0.9">⚠ ANOMALY</text>
  <text x="302" y="113" font-family="monospace" font-size="20" fill="#ff4455" font-weight="700">node_4</text>
  <rect x="416" y="72" width="110" height="60" rx="3" fill="rgba(178,255,0,0.06)" stroke="rgba(178,255,0,0.2)" stroke-width="1"/>
  <text x="426" y="91" font-family="monospace" font-size="8" fill="#B2FF00" opacity="0.6">UPTIME</text>
  <text x="426" y="113" font-family="monospace" font-size="20" fill="#B2FF00" font-weight="700">99.9%</text>
  <!-- Chart area -->
  <rect x="44" y="148" width="480" height="68" rx="3" fill="rgba(178,255,0,0.03)" stroke="rgba(178,255,0,0.15)" stroke-width="1"/>
  <!-- Chart line normal -->
  <polyline points="54,195 90,188 126,190 162,185 198,192 234,182 270,186 306,188" 
    fill="none" stroke="#B2FF00" stroke-width="2" opacity="0.8"/>
  <!-- Spike anomaly -->
  <polyline points="306,188 320,155 334,190 370,185 406,188 442,183 478,186 514,188" 
    fill="none" stroke="#ff4455" stroke-width="2.5" opacity="0.9"/>
  <circle cx="320" cy="155" r="5" fill="#ff4455"/>
  <line x1="306" y1="148" x2="306" y2="216" stroke="#ff4455" stroke-width="1" stroke-dasharray="3,3" opacity="0.5"/>
  <rect x="0" y="258" width="600" height="22" fill="rgba(0,0,0,0.6)"/>
  <text x="14" y="273" font-family="monospace" font-size="10" fill="#B2FF00" font-weight="700">ANOMALY DETECTED 14:32:07 · node_4 · 95.2% confidence</text>

</svg>