<svg width="580" height="240" viewBox="0 0 580 240" xmlns="http://www.w3.org/2000/svg">
  <rect width="580" height="240" fill="#08081c"/>
  <rect width="580" height="240" fill="url(#g_smart-diag)"/>
  <defs>
    <radialGradient id="g_smart-diag" cx="80%" cy="20%" r="60%">
      <stop offset="0%" stop-color="#B2FF00" stop-opacity="0.08"/>
      <stop offset="100%" stop-color="#B2FF00" stop-opacity="0"/>
    </radialGradient>
  </defs>
  <g transform="translate(0, 30)">
  
          <polyline points="20,80 60,45 100,65 140,30 180,50 220,20 260,40 300,25 340,55 380,35 420,60 460,30 500,50 540,20 560,35" 
            fill="none" stroke="#B2FF00" stroke-width="2.5" opacity="0.9"/>
          <polyline points="20,80 60,45 100,65 140,30 180,50 220,20 260,40 300,25 340,55 380,35 420,60 460,30 500,50 540,20 560,35" 
            fill="none" stroke="#B2FF00" stroke-width="8" opacity="0.12"/>
          <circle cx="100" cy="65" r="5" fill="#B2FF00"/>
          <circle cx="220" cy="20" r="5" fill="#ff4455"/>
          <circle cx="380" cy="35" r="5" fill="#B2FF00"/>
          <circle cx="460" cy="30" r="8" fill="none" stroke="#ff4455" stroke-width="2"/>
          <rect x="0" y="88" width="580" height="1" fill="#B2FF00" opacity="0.2"/>
          <text x="20" y="110" font-family="monospace" font-size="9" fill="#B2FF00" opacity="0.6">ANOMALY DETECTED · 14:32:07</text>
          <text x="460" y="110" font-family="monospace" font-size="9" fill="#ff4455" opacity="0.8">⚠ node_04</text>
        
  </g>
  <rect x="0" y="202" width="580" height="38" fill="rgba(0,0,0,0.5)"/>
  <text x="16" y="220" font-family="monospace" font-size="11" fill="#B2FF00" font-weight="700" letter-spacing="1">SMART DIAGNOSTICS</text>
  <text x="16" y="232" font-family="monospace" font-size="8" fill="#B2FF00" opacity="0.5">MicroService · IoT Anomaly</text>
</svg>